<?xml version="1.0" standalone="no"?>
<!DOCTYPE svg PUBLIC "-//W3C//DTD SVG 20010904//EN"
 "http://www.w3.org/TR/2001/REC-SVG-20010904/DTD/svg10.dtd">
<svg version="1.0" xmlns="http://www.w3.org/2000/svg"
 width="1280.000000pt" height="972.000000pt" viewBox="0 0 1280.000000 972.000000"
 preserveAspectRatio="xMidYMid meet">
<metadata>
Created by potrace 1.15, written by Peter Selinger 2001-2017
</metadata>
<g transform="translate(0.000000,972.000000) scale(0.100000,-0.100000)"
fill="#3f51b5" stroke="none">
<path d="M6100 9714 c-487 -36 -978 -168 -1404 -381 -124 -61 -372 -210 -480
-287 -342 -245 -651 -556 -892 -897 -339 -478 -557 -1055 -629 -1664 -20 -164
-20 -581 0 -750 81 -703 328 -1303 758 -1843 333 -418 769 -766 1252 -998 381
-183 736 -287 1180 -344 131 -17 526 -24 685 -11 845 67 1623 408 2234 980
710 665 1118 1551 1152 2499 26 735 -176 1455 -581 2071 -438 666 -1087 1169
-1853 1435 -226 78 -534 147 -792 176 -100 11 -535 21 -630 14z"/>
<path d="M2460 7893 c-169 -28 -445 -210 -729 -480 l-95 -89 49 -60 c96 -117
121 -213 90 -350 -41 -187 -142 -463 -290 -796 l-48 -108 22 -112 c37 -188 73
-330 81 -321 4 4 59 94 120 198 201 338 307 559 360 750 l22 79 175 180 c360
371 475 589 461 875 -7 135 -48 208 -129 231 -34 10 -45 11 -89 3z"/>
<path d="M10245 7888 c-40 -14 -73 -45 -98 -93 -19 -35 -22 -56 -22 -170 1
-104 5 -146 23 -210 53 -186 179 -367 442 -639 161 -166 167 -173 184 -236 43
-157 121 -331 248 -560 147 -262 241 -413 249 -398 4 7 27 106 50 220 l42 207
-85 198 c-131 301 -217 542 -253 707 -30 136 -5 234 90 349 l47 58 -23 26
c-50 54 -248 228 -344 301 -241 185 -450 276 -550 240z"/>
<path d="M1070 7488 c-83 -32 -169 -125 -252 -274 -37 -66 -101 -167 -142
-225 -218 -306 -338 -659 -355 -1049 -10 -210 -26 -267 -155 -558 -163 -366
-170 -400 -163 -757 6 -292 17 -422 97 -1080 40 -336 58 -521 70 -736 12 -212
35 -327 93 -453 45 -97 127 -223 204 -311 70 -82 309 -272 478 -380 404 -258
1001 -477 1984 -729 248 -64 257 -67 336 -119 203 -135 313 -264 460 -537 37
-69 87 -160 112 -202 l45 -78 176 0 c98 1 434 5 747 10 314 5 739 10 945 11
206 1 404 5 440 8 l64 6 43 210 c48 239 93 514 93 568 0 80 16 30 32 -101 19
-147 114 -650 128 -672 7 -12 124 -15 672 -21 365 -4 895 -10 1179 -14 l516
-8 45 79 c25 44 74 131 108 194 140 260 265 409 448 534 l97 66 250 64 c1230
315 1786 545 2290 948 210 168 348 355 420 571 36 107 42 150 54 343 17 260
29 389 76 789 81 677 88 768 89 1045 0 140 -3 284 -7 320 -11 89 -52 207 -148
422 -44 101 -97 230 -117 288 -33 98 -36 117 -43 280 -4 96 -13 202 -19 235
-58 304 -171 580 -329 805 -45 63 -111 168 -148 232 -81 144 -153 227 -231
265 -48 24 -70 28 -137 28 -68 0 -89 -4 -140 -29 -187 -91 -294 -333 -239
-541 8 -33 26 -114 40 -180 35 -163 70 -271 175 -530 l89 -220 -24 -60 c-38
-94 -50 -205 -42 -400 3 -93 14 -226 24 -294 l19 -125 -25 -80 c-21 -70 -25
-102 -26 -241 0 -88 3 -217 8 -287 l8 -128 87 0 c139 -1 260 -38 383 -119 89
-58 167 -141 205 -219 25 -52 28 -67 28 -163 0 -100 -2 -108 -34 -172 -24 -48
-92 -133 -244 -304 -115 -131 -275 -312 -356 -403 -227 -257 -620 -644 -637
-627 -3 3 -8 24 -11 46 -10 77 14 114 309 473 153 187 278 344 276 348 -2 5
-95 86 -208 180 -113 94 -205 175 -205 180 0 10 192 235 284 333 36 38 78 75
94 84 90 46 236 62 396 44 56 -7 105 -10 108 -8 8 9 -25 61 -59 93 -61 58
-118 76 -303 95 -198 21 -414 -7 -576 -73 -190 -78 -314 -170 -625 -465 -391
-371 -572 -507 -879 -658 -273 -135 -511 -206 -897 -269 -117 -19 -326 -53
-464 -75 -440 -71 -630 -121 -819 -215 -218 -108 -369 -219 -526 -385 -157
-166 -304 -414 -375 -633 -15 -49 -31 -88 -34 -88 -3 0 -18 42 -35 92 -123
379 -391 715 -738 927 -128 78 -282 148 -392 179 -219 62 -288 75 -1012 191
-381 62 -642 134 -868 239 -331 154 -535 304 -940 687 -323 306 -449 399 -638
475 -137 55 -242 73 -422 74 -250 1 -388 -30 -457 -101 -35 -38 -63 -81 -56
-88 2 -2 61 1 131 7 229 20 351 -9 449 -110 65 -66 308 -344 308 -353 0 -3
-94 -84 -210 -179 -115 -96 -210 -178 -210 -182 0 -4 128 -164 285 -355 213
-259 288 -357 296 -387 10 -38 7 -111 -5 -123 -23 -23 -433 395 -832 848 -182
206 -347 397 -367 425 -61 85 -79 145 -75 249 2 76 8 99 33 149 97 193 346
335 587 336 l86 0 9 118 c4 64 8 194 7 287 0 152 -3 179 -25 251 l-25 82 18
123 c10 68 21 204 25 301 7 199 -4 295 -43 394 l-24 61 46 109 c117 279 189
490 219 644 9 47 26 121 37 165 87 339 -205 673 -492 563z"/>
<path d="M907 3995 c-104 -18 -104 -18 -118 -63 -9 -32 -9 -44 2 -59 37 -52
462 -563 468 -563 12 0 366 299 366 309 0 19 -269 317 -307 340 -82 50 -244
64 -411 36z"/>
<path d="M11575 3997 c-97 -26 -118 -44 -319 -276 -76 -87 -87 -104 -75 -116
34 -33 354 -295 360 -295 7 0 448 532 468 565 10 16 9 28 -2 60 -13 38 -17 41
-73 53 -90 19 -300 24 -359 9z"/>
</g>
</svg>
